# xmcd
#
# Track frame offsets:
#	150
#	17882
#	33251
#	52785
#	73490
#	85566
#	107480
#	133708
#	149842
#	176468
#	186079
#
# Disc length: 2708 seconds
#
# Revision: 0
# Processed by: cddbd v1.5.2PL0 Copyright (c) Steve Scherf et al.
# Submitted via: dBpowerAMP V4.0
#
DISCID=950a920b
DTITLE=Rodeo Kill - Year of the Steer
DYEAR=2007
DGENRE=Outlaw Country
TTITLE0=Ghost Town
TTITLE1=Old Hank
TTITLE2=Heart Break Away From Hell
TTITLE3=Got Honky Tonk Mommas
TTITLE4=My Back Yard
TTITLE5=Pack Your Bags
TTITLE6=Ernie Pine
TTITLE7=Beat That Train
TTITLE8=Second Chance
TTITLE9=Alien Harvest
TTITLE10=Cattle Rustlers From The Sky
EXTD=Ryan Leisinger\nYear of the Steer\nwww.yearofthesteer.com\nKill Country Star Records\nwww.killcountrystar.com
EXTT0=
EXTT1=
EXTT2=
EXTT3=
EXTT4=
EXTT5=
EXTT6=
EXTT7=
EXTT8=
EXTT9=
EXTT10=
PLAYORDER=
